<svg width="20" height="20" viewBox="0 0 20 20" fill="none" xmlns="http://www.w3.org/2000/svg">
<path d="M18.7168 5C18.0751 5.29167 17.3834 5.48333 16.6668 5.575C17.4001 5.13333 17.9668 4.43333 18.2334 3.59167C17.5418 4.00833 16.7751 4.3 15.9668 4.46667C15.3084 3.75 14.3834 3.33333 13.3334 3.33333C11.3751 3.33333 9.77511 4.93333 9.77511 6.90833C9.77511 7.19167 9.80845 7.46667 9.86678 7.725C6.90011 7.575 4.25845 6.15 2.50011 3.99167C2.19178 4.51667 2.01678 5.13333 2.01678 5.78333C2.01678 7.025 2.64178 8.125 3.60845 8.75C3.01678 8.75 2.46678 8.58333 1.98345 8.33333V8.35833C1.98345 10.0917 3.21678 11.5417 4.85011 11.8667C4.32572 12.0102 3.77519 12.0301 3.24178 11.925C3.46812 12.6354 3.91139 13.257 4.50929 13.7024C5.10719 14.1479 5.82965 14.3947 6.57511 14.4083C5.31147 15.4087 3.74511 15.9494 2.13345 15.9417C1.85011 15.9417 1.56678 15.925 1.28345 15.8917C2.86678 16.9083 4.75011 17.5 6.76678 17.5C13.3334 17.5 16.9418 12.05 16.9418 7.325C16.9418 7.16667 16.9418 7.01667 16.9334 6.85833C17.6334 6.35833 18.2334 5.725 18.7168 5Z" fill="white"/>
</svg>
