<svg width="20" height="20" viewBox="0 0 20 20" fill="none" xmlns="http://www.w3.org/2000/svg">
<path d="M18.3334 20L13.9584 15.8333L14.4834 17.5H3.75008C3.19755 17.5 2.66764 17.2805 2.27694 16.8898C1.88624 16.4991 1.66675 15.9692 1.66675 15.4167V2.91667C1.66675 2.36413 1.88624 1.83423 2.27694 1.44353C2.66764 1.05283 3.19755 0.833333 3.75008 0.833333H16.2501C16.8026 0.833333 17.3325 1.05283 17.7232 1.44353C18.1139 1.83423 18.3334 2.36413 18.3334 2.91667V20ZM10.0001 5.66667C7.76675 5.66667 6.20008 6.625 6.20008 6.625C7.05841 5.85833 8.55841 5.41667 8.55841 5.41667L8.41675 5.275C7.00841 5.3 5.73341 6.275 5.73341 6.275C4.30008 9.26667 4.39175 11.85 4.39175 11.85C5.55841 13.3583 7.29175 13.25 7.29175 13.25L7.88341 12.5C6.84175 12.275 6.18341 11.35 6.18341 11.35C6.18341 11.35 7.75008 12.4167 10.0001 12.4167C12.2501 12.4167 13.8167 11.35 13.8167 11.35C13.8167 11.35 13.1584 12.275 12.1167 12.5L12.7084 13.25C12.7084 13.25 14.4417 13.3583 15.6084 11.85C15.6084 11.85 15.7001 9.26667 14.2667 6.275C14.2667 6.275 12.9917 5.3 11.5834 5.275L11.4417 5.41667C11.4417 5.41667 12.9417 5.85833 13.8001 6.625C13.8001 6.625 12.2334 5.66667 10.0001 5.66667ZM8.27508 8.825C8.81675 8.825 9.25841 9.3 9.25008 9.88333C9.25008 10.4583 8.81675 10.9417 8.27508 10.9417C7.74175 10.9417 7.30841 10.4583 7.30841 9.88333C7.30841 9.3 7.73341 8.825 8.27508 8.825ZM11.7501 8.825C12.2917 8.825 12.7251 9.3 12.7251 9.88333C12.7251 10.4583 12.2917 10.9417 11.7501 10.9417C11.2167 10.9417 10.7834 10.4583 10.7834 9.88333C10.7834 9.3 11.2084 8.825 11.7501 8.825Z" fill="white"/>
</svg>
